
<svg width="39px" height="39px" viewBox="0 0 39 39" version="1.1" xmlns="http://www.w3.org/2000/svg" xmlns:xlink="http://www.w3.org/1999/xlink">
    <!-- Generator: Sketch 44.1 (41455) - http://www.bohemiancoding.com/sketch -->
    <desc>Created with Sketch.</desc>
    <defs></defs>
    <g id="Welcome" stroke="none" stroke-width="1" fill="none" fill-rule="evenodd">
        <g id="Desktop-HD" transform="translate(-1351.000000, -1898.000000)" fill-rule="nonzero" fill="#37434D">
            <g id="facebook-3" transform="translate(1351.000000, 1898.000000)">
                <path d="M32.9967035,0.047133735 L6.65966088,0.047133735 C3.23704862,0.047133735 0.222051367,2.54069685 0.222051367,5.9727869 L0.222051367,32.3827613 C0.222051367,35.8148513 3.23704862,38.8853314 6.65966088,38.8853314 L22.9667048,38.8853314 C22.9361525,33.794888 22.9739434,28.1262079 22.9493135,23.2004498 C21.9092184,23.1898919 20.8681833,23.1359709 19.8280882,23.1199454 C19.8319425,21.379108 19.8296863,19.6021662 19.8303444,17.8616117 C20.8697814,17.848697 21.9098765,17.8462461 22.9493135,17.836348 C22.9810879,16.143587 22.9175391,14.4403624 22.9825921,12.7491097 C23.0862819,11.4100403 23.5954247,10.056548 24.5938746,9.13140701 C25.8027125,7.97766745 27.5214452,7.58570331 29.1425985,7.53715556 C30.8566308,7.52178996 32.5708511,7.52999123 34.2857295,7.53074537 C34.292498,9.3444515 34.292498,11.1583462 34.2849775,12.9720523 C33.1767272,12.9701669 32.0678189,12.9742204 30.9595686,12.9696956 C30.2575232,12.9256727 29.5358304,13.4596979 29.4080746,14.1583141 C29.3914354,15.3720078 29.4020582,16.5863613 29.4027162,17.7996779 C31.0276298,17.8065595 32.6532014,17.7977926 34.278115,17.8038257 C34.1592899,19.5599344 33.9414754,21.307559 33.68728,23.0485849 C32.2516029,23.0614996 30.8149856,23.1913059 29.3800605,23.1996014 C29.3679336,28.123757 29.3838208,33.7947937 29.3713178,38.8852371 L32.9966095,38.8852371 C36.4192218,38.8852371 38.9529024,35.8147571 38.9529024,32.382667 L38.9529024,5.9727869 C38.9529964,2.54069685 36.4193158,0.047133735 32.9967035,0.047133735 Z" id="Shape"></path>
            </g>
        </g>
    </g>
</svg>