<svg xmlns="http://www.w3.org/2000/svg" viewBox="0 0 616.12 947.94"><defs><style>.cls-1,.cls-2,.cls-3{fill:#2196f3;}.cls-1,.cls-2{stroke:#2196f3;stroke-miterlimit:10;}.cls-1{stroke-width:10px;}.cls-4{fill:#fff;}</style></defs><title>logo</title><g id="Layer_1" data-name="Layer 1"><polygon class="cls-1" points="308.76 5 452.53 5 611.12 140.94 611.12 374.77 423.18 712.44 308.76 712.44 308.76 5"/><polygon class="cls-1" points="307.36 5 163.59 5 5 140.94 5 374.77 180.72 712.44 307.36 712.44 307.36 5"/><polygon class="cls-1" points="183.47 857.55 183.47 898.35 296.46 940.72 296.46 857.55 183.47 857.55"/><polygon class="cls-1" points="418.48 857.55 418.48 898.35 305.49 940.72 305.49 857.55 418.48 857.55"/></g><g id="Layer_3" data-name="Layer 3"><rect class="cls-2" x="180.73" y="726.8" width="242.45" height="23.37"/><rect class="cls-2" x="169.52" y="762.52" width="262.77" height="39.03"/><rect class="cls-2" x="180.73" y="815.93" width="242.45" height="23.37"/></g><g id="Layer_2" data-name="Layer 2"><polyline class="cls-3" points="220.66 717.66 220.66 313.74 158.34 310.4 158.34 356.02 259.61 356.02 259.61 242.52 304.42 242.52"/><path class="cls-4" d="M528.35,773.77h-9V416.64H457V361.76l71.32,3.82v42.05H558.3V294.13h49.32v9H567.3v113.5H528.35ZM466,407.64h53.32V374.12L466,371.26Z" transform="translate(-303.19 -56.11)"/><polyline class="cls-3" points="382.32 717.66 382.32 313.74 444.63 310.4 444.63 356.02 343.37 356.02 343.37 242.52 298.55 242.52"/><path class="cls-4" d="M690,773.77h-9V416.64H642.06V303.13H601.74v-9h49.32v113.5H681V365.59l71.32-3.82v54.87H690Zm0-366.13h53.32V371.26L690,374.12Z" transform="translate(-303.19 -56.11)"/></g></svg>