
<svg width="422px" height="333px" viewBox="0 0 422 333" version="1.1" xmlns="http://www.w3.org/2000/svg" xmlns:xlink="http://www.w3.org/1999/xlink">
    <!-- Generator: Sketch 44.1 (41455) - http://www.bohemiancoding.com/sketch -->
    <desc>Created with Sketch.</desc>
    <defs></defs>
    <g id="Page-1" stroke="none" stroke-width="1" fill="none" fill-rule="evenodd">
        <g id="Artboard" transform="translate(-167.000000, -84.000000)">
            <g id="Group-Copy-8" transform="translate(167.000000, 92.000000)">
                <path d="M123.275,66.225 L90.125,66.225 L90.125,58.75 C90.125,51.1666287 88.3375179,44.6125276 84.7625,39.0875 C81.1874821,33.5624724 75.1750422,30.8 66.725,30.8 C62.1749772,30.8 58.4375146,31.666658 55.5125,33.4 C52.5874854,35.133342 50.3125081,37.3541531 48.6875,40.0625 C47.0624919,42.7708469 45.9250032,45.9124821 45.275,49.4875 C44.6249967,53.0625179 44.3,56.7999805 44.3,60.7 C44.3,65.2500227 44.4624984,69.0958176 44.7875,72.2375 C45.1125016,75.3791824 45.9249935,78.0874886 47.225,80.3625 C48.5250065,82.6375114 50.4208209,84.641658 52.9125,86.375 C55.4041791,88.108342 58.816645,89.841658 63.15,91.575 L88.5,101.65 C95.8667035,104.466681 101.824977,107.770814 106.375,111.5625 C110.925023,115.354186 114.445821,119.795808 116.9375,124.8875 C119.429179,129.979192 121.108329,135.829134 121.975,142.4375 C122.841671,149.045866 123.275,156.574958 123.275,165.025 C123.275,174.775049 122.30001,183.820792 120.35,192.1625 C118.39999,200.504208 115.204189,207.654137 110.7625,213.6125 C106.320811,219.570863 100.416704,224.283316 93.05,227.75 C85.6832965,231.216684 76.6917198,232.95 66.075,232.95 C58.0582932,232.95 50.583368,231.541681 43.65,228.725 C36.716632,225.908319 30.7583582,222.062524 25.775,217.1875 C20.7916417,212.312476 16.8375146,206.5167 13.9125,199.8 C10.9874854,193.0833 9.525,185.825039 9.525,178.025 L9.525,165.675 L42.675,165.675 L42.675,176.075 C42.675,182.141697 44.4624821,187.612476 48.0375,192.4875 C51.6125179,197.362524 57.6249577,199.8 66.075,199.8 C71.7083615,199.8 76.0958176,198.987508 79.2375,197.3625 C82.3791824,195.737492 84.7624919,193.462515 86.3875,190.5375 C88.0125081,187.612485 89.0416645,183.983355 89.475,179.65 C89.9083355,175.316645 90.125,170.550026 90.125,165.35 C90.125,159.283303 89.9083355,154.300019 89.475,150.4 C89.0416645,146.49998 88.1208404,143.358345 86.7125,140.975 C85.3041596,138.591655 83.3541791,136.641674 80.8625,135.125 C78.3708209,133.608326 75.0666873,131.983342 70.95,130.25 L47.225,120.5 C32.9249285,114.649971 23.3375244,106.904215 18.4625,97.2625 C13.5874756,87.6207851 11.15,75.5417392 11.15,61.025 C11.15,52.35829 12.3416547,44.125039 14.725,36.325 C17.1083452,28.524961 20.6291434,21.8083615 25.2875,16.175 C29.9458566,10.5416385 35.8499642,6.04585013 43,2.6875 C50.1500358,-0.670850125 58.491619,-2.35 68.025,-2.35 C76.2583745,-2.35 83.7874659,-0.8333485 90.6125,2.2 C97.4375341,5.2333485 103.287476,9.24164175 108.1625,14.225 C113.037524,19.2083583 116.774987,24.7874691 119.375,30.9625 C121.975013,37.1375309 123.275,43.4749675 123.275,49.975 L123.275,66.225 Z M158.475,-0.4 L191.625,-0.4 L191.625,197.85 L257.275,197.85 L257.275,231 L158.475,231 L158.475,-0.4 Z M289.225,-0.4 L322.375,-0.4 L322.375,105.225 L323.025,105.225 L371.45,-0.4 L404.6,-0.4 L359.425,92.225 L413.05,231 L377.95,231 L340.25,128.3 L322.375,161.775 L322.375,231 L289.225,231 L289.225,-0.4 Z" id="SLK" stroke="#263959" stroke-width="10" fill="#263959"></path>
                <path d="M195.275,253.8 L205.075,253.8 L218.175,291.5 L218.375,291.5 L231.375,253.8 L241.275,253.8 L241.275,325 L231.075,325 L231.075,281.7 L230.875,281.7 L220.775,312.3 L215.675,312.3 L205.675,281.7 L205.475,281.7 L205.475,325 L195.275,325 L195.275,253.8 Z M259.625,253.8 L290.025,253.8 L290.025,263.4 L269.825,263.4 L269.825,284.3 L287.425,284.3 L287.425,293.9 L269.825,293.9 L269.825,314.8 L290.025,314.8 L290.025,325 L259.625,325 L259.625,253.8 Z M305.375,253.8 L320.475,253.8 C326.275029,253.8 330.708318,255.416651 333.775,258.65 C336.841682,261.88335 338.375,266.399971 338.375,272.2 L338.375,305.5 C338.375,312.1667 336.75835,317.083318 333.525,320.25 C330.29165,323.416682 325.641697,325 319.575,325 L305.375,325 L305.375,253.8 Z M315.575,315.4 L320.275,315.4 C323.141681,315.4 325.174994,314.68334 326.375,313.25 C327.575006,311.81666 328.175,309.566682 328.175,306.5 L328.175,272.2 C328.175,269.399986 327.608339,267.233341 326.475,265.7 C325.341661,264.166659 323.275015,263.4 320.275,263.4 L315.575,263.4 L315.575,315.4 Z M357.025,253.8 L367.225,253.8 L367.225,325 L357.025,325 L357.025,253.8 Z M401.475,274.3 L401.275,274.3 L396.275,300.1 L406.475,300.1 L401.475,274.3 Z M397.175,253.8 L405.675,253.8 L421.575,325 L411.375,325 L408.375,309.7 L394.475,309.7 L391.475,325 L381.275,325 L397.175,253.8 Z" id="MEDIA" fill="#263959"></path>
                <rect id="Rectangle-5" fill="#55967E" x="0" y="268" width="176" height="47"></rect>
            </g>
        </g>
    </g>
</svg>