
<svg width="48px" height="39px" viewBox="0 0 48 39" version="1.1" xmlns="http://www.w3.org/2000/svg" xmlns:xlink="http://www.w3.org/1999/xlink">
    <!-- Generator: Sketch 44.1 (41455) - http://www.bohemiancoding.com/sketch -->
    <desc>Created with Sketch.</desc>
    <defs></defs>
    <g id="Welcome" stroke="none" stroke-width="1" fill="none" fill-rule="evenodd">
        <g id="Desktop-HD" transform="translate(-1272.000000, -1898.000000)" fill-rule="nonzero" fill="#37434D">
            <g id="8800" transform="translate(1272.000000, 1898.000000)">
                <path d="M48,4.64068675 C46.2333333,5.42233133 44.3377255,5.95243373 42.3460392,6.18909639 C44.3796863,4.97312651 45.9363922,3.04442771 46.6741961,0.753295181 C44.7665882,1.87936145 42.6609412,2.69703012 40.4173333,3.14028313 C38.6207059,1.22654217 36.0651765,0.0345361446 33.2306667,0.0345361446 C27.7927059,0.0345361446 23.3835294,4.43707229 23.3835294,9.86386747 C23.3835294,10.6335301 23.4705098,11.385259 23.6385098,12.1040964 C15.4560784,11.6937349 8.20047059,7.77940361 3.34439216,1.83143373 C2.49552941,3.28101205 2.01262745,4.97007229 2.01262745,6.77307831 C2.01262745,10.1843253 3.75231373,13.1942169 6.39184314,14.9551687 C4.77811765,14.9012892 3.26039216,14.4580361 1.93168627,13.7212651 L1.93168627,13.8440602 C1.93168627,18.6059759 5.32705882,22.5802169 9.82917647,23.4847349 C9.00431373,23.7063614 8.1345098,23.8291566 7.23466667,23.8291566 C6.59882353,23.8291566 5.98392157,23.7662711 5.38101961,23.6464518 C6.6347451,27.5548313 10.2701176,30.3969759 14.5773333,30.4748976 C11.2089412,33.1104518 6.96172549,34.6767952 2.34862745,34.6767952 C1.55380392,34.6767952 0.770901961,34.6288675 7.84313725e-05,34.5420181 C4.35827451,37.3363133 9.53231373,38.9655422 15.0932549,38.9655422 C33.2068235,38.9655422 43.108,23.9849217 43.108,10.992988 L43.0749804,9.72016265 C45.0095686,8.34239759 46.6832157,6.61136145 48,4.64068675 Z" id="Shape"></path>
            </g>
        </g>
    </g>
</svg>